<?xml version="1.0" standalone="no"?>
<!DOCTYPE svg PUBLIC "-//W3C//DTD SVG 20010904//EN"
 "http://www.w3.org/TR/2001/REC-SVG-20010904/DTD/svg10.dtd">
<svg version="1.0" xmlns="http://www.w3.org/2000/svg"
 width="200.000000pt" height="200.000000pt" viewBox="0 0 200.000000 200.000000"
 preserveAspectRatio="xMidYMid meet">
<metadata>
Created by potrace 1.11, written by Peter Selinger 2001-2013
</metadata>
<g transform="translate(0.000000,200.000000) scale(0.100000,-0.100000)"
fill="#000000" stroke="none">
<path d="M505 1154 c-58 -76 -84 -191 -58 -257 16 -39 24 -45 41 -24 7 8 6 29
-1 65 -14 64 0 125 43 188 23 34 26 45 16 54 -10 8 -20 2 -41 -26z"/>
<path d="M1261 1166 c-10 -11 -9 -21 3 -45 28 -54 22 -140 -16 -215 -16 -31
-17 -40 -6 -47 17 -11 32 9 59 80 27 70 29 163 6 209 -19 35 -29 39 -46 18z"/>
<path d="M1031 1148 c-64 -11 -75 -26 -78 -109 -3 -122 17 -140 158 -136 82 3
94 5 110 26 23 28 25 61 4 61 -8 0 -15 -6 -15 -14 0 -34 -30 -46 -113 -46 -45
0 -88 4 -96 9 -19 12 -24 142 -7 167 10 13 30 18 87 19 86 2 119 -7 126 -35 7
-26 33 -26 33 -1 0 24 -24 49 -53 56 -46 9 -114 11 -156 3z"/>
<path d="M653 1138 c-65 -100 -129 -224 -119 -230 10 -7 19 0 41 37 8 13 28
16 99 17 89 1 89 0 116 -32 18 -22 29 -29 34 -22 4 7 -23 64 -61 127 -66 112
-90 134 -110 103z m47 -49 c0 -5 12 -28 26 -50 14 -23 23 -43 21 -45 -3 -3
-36 -4 -75 -2 l-70 3 36 62 c28 48 39 60 49 51 7 -6 13 -14 13 -19z"/>
<path d="M824 1055 c-27 -41 6 -86 56 -76 38 7 46 64 13 89 -26 19 -51 14 -69
-13z"/>
</g>
</svg>
